<svg width="505" height="258" viewBox="0 0 505 258" fill="none" xmlns="http://www.w3.org/2000/svg">
<rect width="505" height="258" fill="#F5F5F5"/>
<path d="M64 54.8302C64 48.8483 61.9644 45 54.4204 45C47.9865 45 36.5676 51.2901 36.5676 56.9805C36.5676 63.3192 41.0762 65.9973 48.6727 67.8688C52.6831 68.8568 56.6295 72.1525 60.0811 74.0127C61.6671 74.8674 62.8309 78.2733 63.1727 79.7469C64.0723 83.6255 61.7242 87.6866 56.5541 88.5873C53.6908 89.086 51.1073 88.8506 48.2808 89.543C45.0018 90.3462 43.0909 91.8903 39.7027 90.328C36.2871 88.7531 35 84.4432 35 81.556C35 74.8708 35.0629 82.8094 37.3514 83.7063" stroke="black" stroke-width="3"/>
<path d="M61 89C73.9525 78.8244 82.5447 67.5752 84.8337 52.9897C85.8019 46.82 86.0022 39.9103 85.313 33.6838C84.9555 30.4537 81.7038 39.5461 80.5201 42.6521C79.3481 45.7275 79.0387 48.5209 79.0387 51.6889C79.0387 59.4155 79.8686 67.5446 77.8187 75.1367C77.275 77.1501 75.618 84.2296 71.9801 84.0708C66.3706 83.826 75.0784 75.7474 75.9015 75.1367C78.9111 72.9037 85.5743 66.5221 90.803 68.8041C98.2448 72.0521 95.5087 81.4558 95.5087 87.1516" stroke="black" stroke-width="3"/>
<path d="M95.2598 88.4959C100.632 84.7415 108.514 83.5816 111.759 78.6115C115.699 72.5801 118.612 65.116 119.442 58.2251C120.523 49.253 120.066 39.4768 118.743 30.5626C117.96 25.2837 116.807 19.2143 112.109 15.1183C105.703 9.53453 92.5043 0.765795 81.7283 2.1451C73.0965 3.24994 64.4728 3.39745 55.8002 4.34162C48.5205 5.13414 41.9613 6.6338 36.7688 11.0685C29.7705 17.0453 22.2439 23.1366 16.0786 29.6703C9.57104 36.5667 5.60981 43.3798 3.33284 51.9101C0.99224 60.6788 2.41969 70.654 2.54714 79.5725C2.67452 88.4862 7.85735 97.5527 14.158 104.901C18.2075 109.624 24.6866 116.993 32.5784 118.012C42.2794 119.264 52.4185 119.459 62.2167 120.037C69.6357 120.474 76.0258 121.578 83.4743 120.62C91.943 119.53 99.4056 117.1 107.394 114.786C113.036 113.151 116.312 112.258 119.878 108.333C122.332 105.632 124.42 103.252 127.037 100.783C129.346 98.6044 132.212 96.1183 133.759 93.5754C135.496 90.7199 138.25 89.2248 140.656 87.1231C142.58 85.4419 146.047 83.0599 142.402 86.6426" stroke="black" stroke-width="3"/>
<path d="M142 84.5842C145.455 88.1065 146.363 91.3543 152.206 93.1366C158.718 95.1226 159.933 90.292 163.591 87.4236C164.764 86.5032 169.137 86.8255 170.264 87.6631C172.47 89.3019 174.437 91.3694 177.199 92.4524C181.692 94.2145 189.285 92.2293 193.73 91.3577C197.619 90.5951 203.378 88.5703 207.557 89.5788C212.965 90.884 218.399 94.7592 223.651 96.626C231.973 99.5833 240.677 101.371 249.516 103.057C268.425 106.665 286.18 110.403 305.826 109.489C321.645 108.753 337.25 105.897 352.671 103.194C370.443 100.08 385.162 95.1046 400.606 87.5605C412.82 81.5945 424.928 74.1274 430.135 63.2375C430.728 61.9984 432.372 56.8286 428.565 58.2429C425.893 59.2357 424.207 60.6521 422.677 62.5191C419.226 66.7293 418.281 73.2439 416.614 77.9476C411.648 91.9577 403.575 105.423 396.201 118.725C388.118 133.306 379.697 147.805 372.648 162.719C365.711 177.396 359.28 192.175 351.014 206.438C345.718 215.576 343.078 227.053 335.311 235.174C329.056 241.716 325.057 249.314 321.79 257" stroke="black" stroke-width="3"/>
<path d="M322 256C323.304 240.937 327.372 226.536 331.67 211.983C334.028 203.997 343.439 196.887 350.021 190.854C354.358 186.879 355.412 183.42 358.316 178.583C359.492 176.623 360.43 172.03 363 171" stroke="black" stroke-width="3"/>
<path d="M359.773 173.587C358.273 172.203 357.729 170.51 355.668 169.432C350.995 166.99 344.169 167.652 338.808 167.652C334.471 167.652 332.18 168.502 328.762 170.62C325.973 172.347 323.643 175.619 320.463 176.819C317.533 177.925 316.498 173.658 315.921 172.334C314.602 169.312 312.493 168.236 308.67 166.531C297.962 161.752 286.41 157.987 273.99 156.77C246.214 154.048 216.261 158.017 188.949 161.485C156.648 165.587 124.507 170.464 91.9844 173.521C74.7304 175.143 57.2829 176.244 39.8767 175.962C36.2443 175.903 32.4516 174.332 29.3503 172.994C21.4242 169.574 50.9681 168.326 51.2329 168.311C77.1162 166.915 103.326 167.966 129.242 167.982C172.426 168.007 215.606 167.949 258.79 168.113C305.782 168.293 353.029 169.242 399.913 166.3C429.522 164.442 459.888 162.753 488.623 156.836C491.526 156.238 495 156.846 495 154" stroke="black" stroke-width="3"/>
<path d="M418 79.3811C418.539 86.7811 424.106 96.6866 434.331 98.3198C442.96 99.698 454.287 99.343 460.566 93.8306C463.552 91.2089 472.645 83.3757 468.731 79.1005C463.801 73.7148 447.934 71.0733 440.673 74.6114C436.548 76.6213 433.532 80.8442 433.028 84.712C431.524 96.2545 445.23 97.3697 456.222 97.4079C465.193 97.4391 469.791 93.9473 474.899 88.2893C477.885 84.9818 481.327 80.5961 481.327 76.365C481.327 71.8575 479.182 85.2122 478.026 89.622C477.333 92.2673 476.098 94.7411 475.246 97.3378C474.356 100.054 470.864 98.2716 471.685 97.6885C475.432 95.0256 476.668 90.6616 479.764 87.4476C482.66 84.441 485.541 82.2883 489.059 79.7318C493.248 76.6874 499.067 76.921 504 75.5934" stroke="black" stroke-width="3"/>
<path d="M378 59C378.85 71.9631 402.572 67.1134 408 78" stroke="black" stroke-width="3"/>
</svg>
